<svg version="1.1" id="Layer_1" xmlns="http://www.w3.org/2000/svg" xmlns:xlink="http://www.w3.org/1999/xlink" x="0px" y="0px"
	 width="21.962px" height="22.001px" viewBox="19.988 106 21.962 22.001" enable-background="new 19.988 106 21.962 22.001"
	 xml:space="preserve">
<path fill="#A9A8A8" d="M41.738,126.754l-6.315-6.346c2.879-3.443,2.711-8.6-0.514-11.837c-1.651-1.658-3.847-2.571-6.183-2.571
	s-4.531,0.913-6.183,2.571c-3.407,3.421-3.407,8.988,0,12.409c1.651,1.658,3.847,2.571,6.183,2.571c2.103,0,4.089-0.746,5.67-2.104
	l6.31,6.339c0.143,0.143,0.329,0.215,0.516,0.215s0.373-0.071,0.515-0.213C42.021,127.502,42.022,127.039,41.738,126.754z
	 M23.576,119.948c-2.841-2.852-2.841-7.493,0-10.345c1.375-1.381,3.205-2.142,5.149-2.142c1.945,0,3.774,0.76,5.15,2.142
	c2.841,2.852,2.841,7.493,0,10.345c-1.375,1.381-3.205,2.142-5.15,2.142C26.781,122.089,24.952,121.329,23.576,119.948z"/>
</svg>